<?xml version="1.0" standalone="no"?>
<!DOCTYPE svg PUBLIC "-//W3C//DTD SVG 20010904//EN"
 "http://www.w3.org/TR/2001/REC-SVG-20010904/DTD/svg10.dtd">
<svg version="1.0" xmlns="http://www.w3.org/2000/svg"
 width="516.000000pt" height="61.000000pt" viewBox="0 0 516.000000 61.000000"
 preserveAspectRatio="xMidYMid meet">

<g transform="translate(0.000000,61.000000) scale(0.100000,-0.100000)"
fill="#000000" stroke="none">
<path d="M4501 564 c-12 -15 -21 -30 -21 -34 0 -16 43 -60 59 -60 28 0 61 30
61 56 0 29 -32 64 -59 64 -11 0 -29 -12 -40 -26z"/>
<path d="M188 365 c-3 -208 -4 -215 -26 -237 -18 -18 -33 -23 -71 -22 -49 2
-49 2 -56 -33 -3 -20 -2 -40 3 -45 18 -18 148 -5 179 18 63 47 68 67 71 312
l3 222 -50 0 -50 0 -3 -215z"/>
<path d="M2431 563 c-58 -20 -125 -90 -145 -150 -50 -146 8 -308 131 -369 58
-29 221 -27 286 3 l47 22 0 115 0 116 -90 0 -90 0 0 -35 c0 -35 0 -35 45 -35
l46 0 -3 -57 -3 -58 -55 -14 c-133 -33 -229 49 -230 197 0 166 134 245 288
169 l44 -21 19 24 c28 36 20 52 -40 83 -46 23 -67 27 -130 26 -42 0 -96 -8
-120 -16z"/>
<path d="M625 396 c-86 -39 -126 -145 -95 -256 11 -41 61 -94 103 -109 36 -14
118 -14 154 0 149 56 149 312 0 368 -39 15 -126 13 -162 -3z m150 -80 c47 -47
41 -178 -10 -212 -36 -24 -103 -15 -127 16 -39 53 -35 154 7 196 33 33 97 33
130 0z"/>
<path d="M1153 391 c-39 -25 -53 -49 -53 -96 0 -49 40 -89 113 -110 30 -9 61
-22 67 -30 18 -22 8 -48 -24 -64 -26 -12 -36 -12 -84 5 -53 18 -55 18 -68 -1
-8 -11 -13 -24 -11 -30 7 -21 73 -45 125 -45 97 0 152 45 152 125 0 48 -31 78
-104 101 -70 22 -92 44 -76 74 12 22 19 23 129 8 15 -2 28 4 37 18 13 20 12
23 -13 40 -42 28 -149 31 -190 5z"/>
<path d="M1675 396 c-135 -58 -138 -287 -5 -357 62 -34 174 -22 233 23 18 13
18 15 -1 38 -20 24 -20 25 -56 7 -41 -19 -107 -22 -138 -6 -18 10 -48 65 -48
89 0 6 48 10 131 10 l131 0 -4 58 c-7 101 -64 152 -165 152 -26 -1 -62 -7 -78
-14z m145 -76 c11 -11 20 -29 20 -40 0 -19 -7 -20 -90 -20 -98 0 -103 6 -57
58 27 30 98 31 127 2z"/>
<path d="M3044 391 c-47 -21 -57 -32 -48 -54 9 -24 33 -28 64 -12 38 20 104
19 124 -1 9 -8 16 -28 16 -43 0 -27 -3 -29 -55 -35 -117 -13 -175 -56 -175
-128 0 -31 7 -46 30 -70 29 -28 35 -30 89 -26 37 3 68 11 88 26 l30 21 11 -24
c9 -19 19 -25 43 -25 l31 0 -4 153 c-3 167 -11 193 -69 223 -39 20 -126 17
-175 -5z m154 -238 c-3 -33 -8 -41 -41 -56 -43 -22 -81 -17 -97 13 -23 42 25
77 108 79 32 1 33 0 30 -36z"/>
<path d="M3530 215 l0 -195 45 0 45 0 0 128 c0 125 1 129 26 153 20 18 35 24
69 22 40 -1 43 0 49 29 11 55 9 58 -39 58 -37 0 -50 -5 -80 -35 -29 -30 -35
-33 -35 -16 0 38 -11 51 -46 51 l-34 0 0 -195z"/>
<path d="M4070 403 c-71 -27 -110 -95 -110 -193 0 -77 26 -131 79 -167 45 -30
135 -32 191 -3 51 26 57 38 31 63 -20 21 -22 21 -50 4 -42 -25 -94 -22 -128 7
-26 23 -28 29 -28 99 0 66 3 79 24 101 28 29 72 34 128 14 28 -10 36 -10 49 4
23 22 11 46 -31 63 -34 15 -125 19 -155 8z"/>
<path d="M4500 215 l0 -195 45 0 45 0 0 195 0 195 -45 0 -45 0 0 -195z"/>
<path d="M4905 396 c-16 -8 -38 -20 -48 -28 -18 -13 -18 -15 1 -38 20 -24 20
-25 56 -7 42 20 107 22 124 5 7 -7 12 -26 12 -44 0 -31 -1 -32 -57 -39 -121
-15 -184 -70 -169 -148 10 -52 46 -77 111 -77 39 0 61 6 89 25 45 30 44 30 48
3 2 -18 11 -24 36 -26 l32 -3 0 149 c0 139 -2 151 -23 183 -12 18 -34 39 -47
46 -33 17 -127 16 -165 -1z m143 -243 c-3 -33 -8 -41 -41 -56 -54 -27 -92 -13
-92 34 0 30 4 35 35 46 19 7 50 12 68 12 32 1 33 0 30 -36z"/>
</g>
</svg>
