<?xml version="1.0" standalone="no"?>
<!DOCTYPE svg PUBLIC "-//W3C//DTD SVG 20010904//EN"
 "http://www.w3.org/TR/2001/REC-SVG-20010904/DTD/svg10.dtd">
<svg version="1.0" xmlns="http://www.w3.org/2000/svg"
 width="501.000000pt" height="78.000000pt" viewBox="0 0 501.000000 78.000000"
 preserveAspectRatio="xMidYMid meet">

<g transform="translate(0.000000,78.000000) scale(0.100000,-0.100000)"
fill="#000000" stroke="none">
<path d="M4363 748 c-32 -16 -48 -61 -34 -97 12 -27 47 -51 75 -51 7 0 25 9
40 21 37 29 37 89 0 118 -29 23 -48 25 -81 9z"/>
<path d="M2464 740 c-175 -37 -282 -189 -272 -385 8 -145 79 -254 207 -314 49
-23 69 -26 156 -26 104 0 168 15 233 55 l32 20 0 145 0 145 -121 0 -120 0 3
-47 3 -48 58 -3 57 -3 0 -65 c0 -61 -1 -65 -27 -76 -42 -17 -143 -21 -192 -8
-170 45 -219 333 -77 457 48 43 96 56 176 51 48 -4 82 -13 118 -33 28 -15 57
-25 64 -22 7 2 22 21 33 42 l19 37 -24 19 c-67 52 -227 81 -326 59z"/>
<path d="M238 459 l-3 -281 -34 -30 c-31 -27 -38 -29 -95 -26 l-61 3 -3 -52
-3 -52 46 -7 c113 -16 211 26 254 111 26 49 26 51 29 332 l3 283 -65 0 -65 0
-3 -281z"/>
<path d="M642 526 c-62 -21 -107 -59 -136 -118 -22 -43 -26 -66 -26 -133 0
-68 4 -90 26 -134 86 -172 347 -173 436 -2 24 46 28 65 28 135 0 123 -41 195
-138 245 -36 19 -142 23 -190 7z m158 -104 c37 -28 53 -84 47 -170 -5 -86 -24
-119 -82 -141 -32 -13 -43 -13 -78 0 -66 23 -82 55 -82 163 0 72 4 98 18 120
37 55 121 69 177 28z"/>
<path d="M1155 528 c-52 -19 -83 -47 -100 -93 -35 -91 6 -157 122 -196 92 -30
113 -45 113 -80 0 -59 -82 -77 -166 -37 l-46 23 -24 -30 c-13 -17 -23 -34 -21
-40 2 -5 25 -21 52 -35 39 -20 65 -25 120 -25 121 1 185 50 193 151 7 85 -17
109 -171 165 -67 24 -86 49 -63 84 21 32 70 40 126 21 62 -22 73 -20 92 12 16
27 16 28 -16 50 -60 41 -145 53 -211 30z"/>
<path d="M1638 528 c-47 -13 -113 -69 -140 -122 -18 -33 -22 -57 -22 -126 1
-122 40 -196 128 -243 61 -33 184 -31 250 3 68 35 78 53 45 86 l-26 26 -42
-21 c-113 -58 -217 -18 -237 91 l-6 38 168 2 169 3 3 42 c5 67 -15 123 -62
169 -59 59 -135 77 -228 52z m121 -89 c32 -11 47 -31 61 -80 l9 -29 -120 0
c-120 0 -120 0 -114 23 12 40 36 68 68 82 39 17 55 18 96 4z"/>
<path d="M3053 526 c-49 -16 -113 -54 -113 -67 0 -17 32 -59 45 -59 7 0 38 12
69 26 95 43 147 20 161 -71 l7 -41 -85 -10 c-138 -17 -210 -65 -223 -145 -20
-124 130 -189 263 -114 25 14 47 24 48 23 1 -2 8 -13 14 -25 9 -18 20 -23 51
-23 l40 0 0 188 c0 199 -9 242 -56 284 -52 46 -139 59 -221 34z m167 -336 c0
-61 -49 -100 -124 -100 -63 0 -92 51 -54 94 26 28 72 44 136 45 l42 1 0 -40z"/>
<path d="M3655 521 c-16 -10 -41 -30 -54 -45 -33 -35 -39 -33 -43 12 -3 37 -3
37 -50 40 l-48 3 0 -255 0 -256 54 0 55 0 3 166 3 166 37 34 c33 30 44 34 92
34 52 0 54 1 60 31 10 51 7 76 -10 83 -29 11 -69 6 -99 -13z"/>
<path d="M3986 526 c-109 -41 -156 -120 -156 -261 1 -163 109 -268 257 -251
59 7 118 32 145 63 16 18 16 20 -6 48 l-23 28 -53 -26 c-62 -31 -77 -33 -126
-12 -99 41 -99 279 0 320 47 20 74 19 121 -5 49 -25 53 -25 76 3 27 33 24 43
-26 73 -57 33 -150 42 -209 20z"/>
<path d="M4713 526 c-49 -16 -113 -54 -113 -67 0 -17 32 -59 45 -59 7 0 38 12
69 26 95 43 147 20 161 -71 l7 -41 -85 -10 c-138 -17 -210 -65 -223 -145 -20
-124 130 -189 263 -114 25 14 47 24 48 23 1 -2 8 -13 14 -25 9 -18 20 -23 51
-23 l40 0 0 188 c0 199 -9 242 -56 284 -52 46 -139 59 -221 34z m167 -336 c0
-61 -49 -100 -124 -100 -63 0 -92 51 -54 94 26 28 72 44 136 45 l42 1 0 -40z"/>
<path d="M4340 275 l0 -255 60 0 60 0 0 255 0 255 -60 0 -60 0 0 -255z"/>
</g>
</svg>
