<?xml version="1.0" standalone="no"?>
<!DOCTYPE svg PUBLIC "-//W3C//DTD SVG 20010904//EN"
 "http://www.w3.org/TR/2001/REC-SVG-20010904/DTD/svg10.dtd">
<svg version="1.0" xmlns="http://www.w3.org/2000/svg"
 width="2500.000000pt" height="1471.000000pt" viewBox="0 0 2500.000000 1471.000000"
 preserveAspectRatio="xMidYMid meet">
<metadata>
Created by potrace 1.16, written by Peter Selinger 2001-2019
</metadata>
<g transform="translate(0.000000,1471.000000) scale(0.100000,-0.100000)"
fill="#000000" stroke="none">
<path d="M13676 12883 c-7 -7 -8 -1416 0 -1436 2 -7 19 -12 37 -11 l32 1 3
704 c2 387 0 714 -3 727 -4 16 -13 22 -34 22 -15 0 -31 -3 -35 -7z"/>
<path d="M7980 12554 c-113 -30 -207 -110 -262 -222 -31 -63 -33 -72 -33 -177
0 -105 2 -114 33 -177 56 -114 150 -192 267 -222 205 -54 411 38 498 222 30
63 32 74 32 177 0 103 -2 114 -32 177 -87 185 -297 277 -503 222z m190 -154
c77 -21 149 -112 165 -207 23 -141 -80 -281 -215 -291 -143 -10 -253 101 -252
256 1 172 144 286 302 242z"/>
<path d="M14550 12561 c-134 -44 -195 -168 -141 -288 25 -54 70 -83 201 -128
58 -20 119 -48 137 -61 45 -34 61 -90 44 -152 -38 -144 -227 -188 -360 -83
-46 37 -57 38 -67 9 -8 -26 25 -57 96 -91 65 -31 207 -31 266 0 83 44 127 121
127 218 0 93 -56 158 -170 195 -125 41 -191 76 -213 112 -27 45 -26 106 3 149
55 84 180 102 279 40 59 -37 65 -38 74 -9 7 24 -5 36 -70 70 -42 22 -164 33
-206 19z"/>
<path d="M15200 12155 l0 -405 30 0 30 0 0 195 0 195 43 0 c42 0 44 -2 235
-195 181 -184 194 -195 229 -195 l38 0 -110 113 c-61 61 -153 156 -205 210
l-95 97 171 173 c93 94 178 182 189 195 l18 22 -34 0 c-30 0 -50 -17 -212
-185 -179 -185 -179 -185 -223 -185 l-44 0 0 185 0 185 -30 0 -30 0 0 -405z"/>
<path d="M16003 12548 c3 -7 68 -114 146 -237 l141 -224 0 -169 0 -168 35 0
36 0 -1 170 -2 170 135 213 c175 278 165 257 125 257 -32 0 -37 -6 -158 -202
-69 -111 -126 -208 -128 -215 -2 -8 -52 64 -111 159 -173 279 -157 258 -192
258 -21 0 -30 -4 -26 -12z"/>
<path d="M16947 12553 c-4 -3 -7 -186 -7 -405 l0 -398 225 0 225 0 0 25 0 25
-190 0 -190 0 0 380 0 380 -28 0 c-16 0 -32 -3 -35 -7z"/>
<path d="M17710 12156 l0 -406 35 0 35 0 -2 403 -3 402 -32 3 -33 3 0 -405z"/>
<path d="M18190 12155 l0 -405 30 0 30 0 2 349 3 349 260 -349 c205 -275 265
-348 283 -349 l22 0 0 405 0 405 -25 0 -25 0 -2 -350 -3 -351 -262 351 c-223
297 -267 350 -288 350 l-25 0 0 -405z"/>
<path d="M19220 12155 l0 -405 245 0 245 0 0 25 0 25 -215 0 -215 0 0 164 c0
151 1 164 19 169 10 2 90 5 177 5 151 0 159 1 162 20 4 27 -38 34 -197 32 -69
-1 -134 -1 -143 -1 -16 1 -18 16 -18 161 l0 160 215 0 215 0 0 25 0 25 -245 0
-245 0 0 -405z"/>
<path d="M5300 12151 l0 -401 90 0 90 0 0 110 0 110 83 0 c183 1 291 46 341
143 26 51 30 68 30 146 0 76 -4 96 -28 145 -15 31 -42 67 -60 81 -67 51 -105
58 -333 63 l-213 4 0 -401z m395 220 c54 -31 71 -104 40 -177 -20 -48 -63 -64
-170 -64 l-85 0 0 128 c0 71 2 131 4 133 3 2 44 3 93 1 60 -3 98 -9 118 -21z"/>
<path d="M6460 12150 l0 -400 96 0 96 0 -4 155 -3 155 158 0 157 0 0 -155 0
-155 90 0 90 0 0 400 0 400 -90 0 -90 0 0 -165 0 -165 -157 0 -158 0 3 165 3
165 -96 0 -95 0 0 -400z"/>
<path d="M9060 12150 l0 -400 295 0 295 0 0 80 0 80 -205 0 -205 0 0 80 0 80
180 0 180 0 0 80 0 80 -180 0 -180 0 0 80 0 80 200 0 200 0 0 80 0 80 -290 0
-290 0 0 -400z"/>
<path d="M10200 12150 l0 -400 90 0 90 0 2 245 3 245 160 -210 c88 -116 171
-226 185 -245 l25 -34 93 -1 92 0 0 400 0 400 -90 0 -90 0 -2 -252 -3 -253
-193 253 -193 252 -84 0 -85 0 0 -400z"/>
<path d="M11520 12150 l0 -400 95 0 95 0 0 400 0 400 -95 0 -95 0 0 -400z"/>
<path d="M12235 12523 c10 -15 67 -103 126 -195 l109 -168 -135 -205 -135
-206 112 3 112 3 77 119 c42 66 80 121 85 123 5 1 45 -53 89 -122 l80 -125
108 0 c59 0 107 3 107 6 0 4 -15 30 -34 58 -103 156 -226 347 -226 350 0 2 54
88 120 190 66 102 120 188 120 191 0 3 -49 5 -109 5 -80 0 -110 -3 -114 -13
-3 -7 -35 -60 -73 -116 -56 -86 -69 -101 -78 -88 -6 9 -40 61 -75 116 l-63
101 -110 0 -110 0 17 -27z"/>
<path d="M10481 10794 c-124 -33 -227 -121 -284 -241 -29 -62 -32 -76 -32
-168 0 -92 3 -106 32 -168 111 -235 387 -324 615 -200 67 37 143 121 181 200
29 62 32 76 32 168 0 92 -3 106 -32 168 -93 196 -306 297 -512 241z"/>
<path d="M14733 10686 c-170 -221 -141 -539 65 -727 153 -140 376 -175 558
-90 58 27 153 89 154 101 0 3 -30 5 -68 6 -75 1 -187 31 -272 74 -223 112
-377 344 -398 596 l-7 82 -32 -42z"/>
<path d="M7265 9776 l-240 -62 -3 -32 c-2 -24 1 -32 13 -32 8 0 121 23 251 50
129 28 238 50 242 50 3 0 0 -6 -6 -12 -7 -7 -122 -35 -255 -63 l-242 -50 -3
-34 c-3 -31 -1 -33 20 -28 55 14 467 97 479 97 9 0 10 -3 3 -10 -6 -6 -84 -26
-175 -45 -90 -18 -198 -41 -239 -49 -41 -9 -78 -16 -82 -16 -5 0 -8 -13 -8
-30 0 -17 5 -30 13 -30 6 0 117 21 245 46 199 40 261 48 241 30 -2 -2 -114
-26 -249 -53 l-245 -49 -3 -32 c-2 -18 -2 -32 0 -32 6 0 448 88 476 95 14 3
22 1 22 -7 0 -9 -66 -26 -203 -52 -327 -62 -297 -53 -297 -87 0 -18 5 -29 13
-29 8 0 119 20 247 45 129 25 238 44 244 42 24 -9 -49 -28 -269 -69 l-230 -44
-3 -33 c-3 -31 -1 -33 20 -28 37 9 409 78 453 84 28 4 37 2 30 -5 -9 -9 -103
-29 -447 -94 -49 -9 -58 -14 -58 -32 0 -21 -2 -21 -273 -22 -149 -1 -336 -2
-414 -3 l-143 -1 0 -1524 c0 -1380 -1 -1524 -16 -1530 -9 -3 -33 -6 -55 -6
l-39 0 0 -90 c0 -53 -4 -90 -10 -90 -6 0 -10 -35 -10 -85 0 -78 -2 -85 -20
-85 -18 0 -20 -7 -20 -75 l0 -75 -39 0 c-22 0 -41 -4 -43 -8 -5 -13 -1178 -2
-1178 12 0 9 145 11 595 8 l594 -4 -2 36 c-2 19 -5 37 -8 40 -3 3 -846 15
-1117 16 -45 0 -62 4 -60 12 3 9 110 11 439 9 239 -1 503 -4 586 -6 151 -4
153 -4 157 18 11 53 7 57 -58 58 -34 0 -104 2 -156 3 -52 2 -259 4 -460 5
-388 2 -510 8 -510 24 0 6 211 8 593 6 l592 -4 0 35 0 35 -345 7 c-190 4 -455
8 -589 10 -190 2 -245 6 -249 16 -3 11 78 12 444 7 247 -3 513 -8 592 -10 78
-2 143 0 143 3 1 4 3 22 5 40 2 32 2 32 -44 32 -26 1 -117 3 -202 5 -318 9
-590 15 -762 15 -155 0 -178 2 -178 16 0 14 23 15 213 10 116 -3 383 -8 593
-12 l381 -6 -1 35 c-1 19 -3 37 -6 40 -3 3 -167 7 -365 11 -670 11 -815 17
-815 32 0 11 21 13 103 10 90 -4 768 -17 997 -20 l85 -1 1 38 c1 36 0 37 -35
38 -20 1 -63 2 -96 4 -33 1 -233 6 -445 10 -212 4 -412 8 -445 9 -33 2 -84 4
-112 4 -40 2 -53 6 -53 17 0 11 7 14 23 11 12 -3 173 -7 357 -11 184 -3 442
-8 572 -11 l237 -7 -2 36 c-2 20 -5 38 -8 41 -4 3 -203 9 -779 22 -146 3 -290
7 -320 9 -30 2 -61 4 -67 4 -7 1 -13 6 -13 12 0 11 358 8 705 -6 61 -2 193 -6
294 -7 l184 -3 3 32 c1 18 -1 35 -6 38 -13 8 -137 13 -470 21 -173 4 -332 8
-352 9 -21 1 -110 3 -198 3 -139 2 -160 4 -160 18 0 16 86 16 555 -1 72 -3
243 -8 380 -11 l251 -6 2 28 c1 16 -2 34 -6 40 -7 11 -130 17 -647 30 -132 3
-258 7 -280 9 -22 2 -88 3 -147 4 -90 1 -108 4 -108 16 0 14 17 15 133 11 174
-7 401 -14 677 -21 124 -4 258 -8 298 -10 39 -3 73 -1 73 3 1 4 3 22 5 40 2
31 1 32 -39 33 -23 0 -51 2 -62 4 -11 2 -123 6 -250 9 -321 9 -612 18 -665 21
-25 1 -73 3 -107 4 -48 1 -63 5 -63 15 0 12 12 14 53 11 28 -2 162 -6 297 -10
135 -3 274 -8 310 -10 36 -2 169 -7 297 -11 223 -6 231 -6 228 12 -2 11 -4 29
-4 40 -1 21 -5 22 -238 29 -131 3 -256 8 -278 10 -22 2 -155 7 -295 11 -140 3
-266 8 -280 9 -14 2 -40 4 -57 4 -23 1 -33 6 -33 17 0 8 3 13 8 11 4 -3 122
-8 262 -12 140 -4 271 -8 290 -10 35 -3 479 -18 574 -19 l49 -1 2 38 c2 22 -2
37 -9 37 -6 0 -108 4 -226 10 -118 5 -303 12 -410 15 -107 4 -217 8 -245 10
-27 2 -105 5 -172 6 -101 2 -123 4 -123 17 0 15 95 14 475 -3 105 -5 241 -10
536 -21 l175 -6 -1 36 c-1 20 -4 38 -6 40 -2 2 -92 7 -199 10 -107 4 -220 9
-250 11 -30 2 -149 7 -265 11 -115 4 -217 8 -225 10 -8 1 -66 3 -127 3 -97 1
-113 3 -113 17 0 14 12 16 103 10 56 -3 188 -9 292 -12 105 -3 207 -8 227 -9
30 -2 240 -10 521 -19 41 -1 41 -1 42 37 0 30 -4 37 -20 38 -11 1 -33 2 -50 4
-16 1 -122 6 -235 9 -113 4 -216 9 -230 11 -14 2 -122 7 -240 10 -118 4 -226
9 -240 10 -14 2 -58 4 -97 4 -58 1 -73 4 -73 16 0 12 13 14 78 10 42 -2 142
-7 222 -10 151 -6 296 -12 465 -20 55 -2 172 -7 260 -11 l160 -7 -1 37 c-1 20
-3 38 -5 40 -2 2 -74 6 -159 10 -213 9 -350 15 -450 21 -47 2 -161 7 -253 11
-92 4 -184 8 -205 9 -20 2 -54 4 -74 4 -27 1 -38 5 -38 17 0 12 8 14 43 10 23
-3 107 -8 187 -11 153 -6 297 -12 445 -20 77 -4 365 -15 474 -19 33 -1 34 1
36 37 1 31 -2 37 -19 38 -12 1 -30 3 -41 4 -11 1 -96 5 -190 9 -93 4 -204 9
-245 11 -41 3 -129 7 -195 10 -66 3 -172 7 -235 10 -187 9 -260 16 -260 27 0
9 225 6 400 -7 30 -2 129 -7 220 -10 91 -3 185 -8 210 -10 25 -2 113 -7 196
-11 l151 -6 5 31 c2 17 2 35 -1 40 -3 5 -76 12 -161 15 -85 4 -175 9 -200 11
-25 2 -121 7 -215 11 -93 3 -177 8 -185 9 -12 2 -351 17 -407 18 -7 0 -13 7
-13 15 0 12 22 13 143 8 78 -4 162 -9 187 -11 25 -2 122 -7 215 -11 94 -3 181
-8 195 -9 24 -3 336 -17 410 -19 32 -1 35 1 36 32 1 18 -2 35 -6 37 -13 8 -89
13 -450 30 -63 3 -142 8 -175 10 -33 2 -130 7 -215 11 -85 3 -166 8 -180 9
-14 2 -55 4 -92 4 -55 1 -68 4 -68 17 0 14 10 15 68 10 37 -3 128 -8 202 -11
74 -3 169 -8 210 -10 41 -3 129 -7 195 -10 66 -3 152 -8 190 -10 39 -2 127 -7
196 -11 l125 -6 -1 38 -1 39 -84 6 c-47 4 -157 10 -245 14 -88 3 -171 8 -185
10 -14 2 -95 6 -180 10 -85 4 -175 8 -200 10 -25 2 -100 7 -167 10 -96 6 -123
10 -123 21 0 11 11 13 48 10 26 -3 110 -8 187 -11 77 -3 160 -8 185 -10 25 -2
108 -7 185 -10 77 -4 154 -8 170 -10 17 -2 102 -6 190 -10 88 -4 172 -9 188
-11 15 -2 28 -1 28 3 7 45 6 63 -1 68 -14 9 -60 13 -220 20 -80 3 -163 8 -185
10 -22 2 -105 7 -185 10 -80 3 -156 8 -170 10 -14 2 -95 7 -180 11 -85 4 -162
8 -170 10 -8 1 -27 3 -42 3 -18 1 -28 6 -28 16 0 11 7 14 23 11 12 -3 81 -8
152 -11 72 -3 232 -12 356 -20 263 -17 521 -30 599 -30 l55 0 -2 34 c-1 18 -3
34 -5 36 -2 1 -95 8 -208 14 -113 7 -225 14 -250 16 -25 2 -110 7 -190 11 -80
3 -152 8 -160 9 -8 2 -85 6 -170 11 -85 4 -158 9 -162 10 -5 1 -15 2 -23 3 -8
0 -15 6 -15 12 0 11 135 8 315 -6 33 -3 182 -12 330 -20 149 -9 317 -18 375
-22 175 -11 165 -12 166 22 1 49 -3 52 -89 59 -45 4 -100 9 -122 11 -22 3
-134 12 -250 20 -115 9 -226 17 -245 20 -19 2 -80 7 -135 11 -55 3 -111 8
-125 9 -180 21 -227 18 -621 -39 -213 -31 -389 -56 -393 -56 -3 0 -6 -346 -6
-769 0 -758 0 -769 -20 -794 -17 -21 -25 -25 -43 -18 -26 10 -49 1 -90 -38
-15 -14 -46 -32 -69 -41 -23 -8 -43 -21 -46 -29 -3 -10 0 -12 12 -8 14 5 15 3
6 -13 -5 -10 -15 -22 -20 -25 -6 -3 -10 -11 -10 -17 0 -6 6 -6 15 2 18 15 34
5 19 -10 -14 -14 -76 -16 -97 -4 -15 9 -12 13 23 33 47 26 54 39 9 15 -42 -21
-57 -1 -26 36 18 22 23 24 28 11 6 -14 8 -14 14 2 6 15 10 16 17 5 6 -8 7 -1
3 22 -5 26 -4 31 4 20 9 -13 11 -13 11 3 0 12 8 17 26 17 22 0 25 2 14 15 -11
13 -6 17 26 31 82 34 102 46 107 66 4 15 -2 27 -19 41 -14 10 -23 22 -20 25 3
3 1 11 -5 18 -8 10 -6 12 10 9 25 -5 26 2 5 27 -14 14 -14 20 -4 33 9 11 9 15
1 15 -7 0 -9 5 -5 13 6 8 3 8 -9 -1 -21 -18 -43 -6 -26 14 10 12 10 15 -2 12
-8 -2 -18 -9 -24 -15 -13 -16 -55 -6 -55 13 0 8 -5 14 -11 14 -5 0 -7 -4 -4
-10 3 -5 1 -10 -4 -10 -6 0 -11 4 -11 9 0 13 -33 6 -38 -8 -3 -8 -9 -6 -19 6
-8 10 -12 12 -8 6 3 -7 1 -13 -4 -13 -6 0 -11 -9 -11 -20 0 -18 -4 -20 -35
-14 -28 5 -35 3 -35 -9 0 -9 -5 -19 -10 -22 -6 -4 -10 5 -8 24 1 16 7 29 12
28 5 -1 12 6 14 16 5 26 -13 21 -28 -8 -26 -48 -35 -27 -13 30 2 6 -3 19 -11
30 -14 19 -15 19 -21 -8 -11 -41 -21 -32 -17 16 2 30 0 38 -7 27 -5 -8 -7 -18
-5 -22 3 -4 -1 -8 -9 -8 -10 0 -14 7 -10 23 3 16 2 18 -5 8 -8 -11 -11 -10
-15 5 -3 10 -3 -1 -1 -26 3 -32 1 -38 -4 -20 l-8 25 -10 -30 -11 -30 -6 27
c-5 18 -13 26 -26 25 -12 -1 -17 -6 -13 -16 3 -9 1 -12 -6 -7 -17 10 -49 -2
-56 -21 -6 -14 -4 -14 11 -2 16 13 17 12 4 -4 -8 -10 -20 -16 -27 -13 -21 8
-22 -17 -3 -45 10 -14 15 -30 11 -34 -4 -5 -2 -5 4 -2 7 4 18 0 25 -9 10 -13
10 -17 -2 -25 -11 -7 -11 -9 0 -9 7 0 11 -6 7 -15 -3 -8 -1 -15 3 -15 15 0 22
-32 11 -45 -8 -9 -7 -14 2 -18 9 -3 6 -13 -12 -33 -14 -16 -17 -22 -7 -14 15
11 20 11 26 1 9 -14 2 -63 -10 -71 -4 -3 14 -18 42 -33 40 -23 49 -25 49 -12
0 10 -5 13 -12 9 -7 -4 -10 -3 -5 1 4 5 17 10 28 12 19 3 20 0 14 -24 -11 -45
-20 -47 -79 -19 -46 22 -56 31 -56 51 0 16 -6 25 -15 25 -9 0 -27 11 -40 25
-14 13 -25 22 -25 19 0 -3 -26 15 -57 39 -55 42 -99 55 -119 35 -4 -5 -15 -8
-25 -8 -17 0 -34 -26 -21 -33 4 -3 31 -12 60 -21 28 -10 52 -21 52 -26 0 -18
-20 -20 -54 -3 -30 14 -39 15 -60 4 -13 -7 -37 -11 -52 -8 -42 9 -107 -5 -109
-23 -2 -11 8 -15 39 -15 31 0 40 -4 38 -15 -3 -12 -1 -13 9 -2 14 13 59 17 59
5 0 -3 -8 -16 -17 -27 -17 -20 -17 -20 1 -6 11 8 17 10 13 3 -4 -6 -3 -22 1
-34 8 -21 9 -20 16 13 3 20 14 42 23 49 15 13 16 10 10 -31 l-5 -45 19 35 c15
27 19 29 15 11 -7 -34 4 -86 15 -69 6 9 9 7 9 -9 0 -25 -24 -53 -46 -53 -8 0
-13 -3 -11 -7 3 -5 -19 -6 -48 -5 -41 3 -54 0 -58 -12 -5 -12 1 -16 26 -17 30
-2 30 -2 -8 -9 -32 -6 -34 -7 -12 -9 16 0 26 -5 22 -11 -3 -6 4 -14 17 -19 14
-6 17 -10 7 -10 -8 -1 -20 4 -27 11 -7 7 -12 8 -12 4 0 -5 -6 -5 -13 0 -7 5
-5 2 5 -7 9 -9 14 -20 10 -24 -4 -4 6 -5 22 -1 26 6 27 6 12 -9 -21 -22 -20
-26 7 -21 12 3 22 5 22 6 0 1 15 3 33 6 26 3 32 0 32 -14 0 -10 -5 -23 -12
-30 -14 -14 3 -17 17 -3 6 4 25 13 43 19 29 10 32 9 32 -10 0 -21 0 -21 21 -2
16 14 22 15 28 5 6 -9 11 -10 15 -2 4 6 4 16 0 22 -5 9 1 10 20 5 19 -5 26 -3
26 8 0 8 7 16 15 20 8 3 15 15 15 26 0 23 19 23 37 0 9 -11 12 -12 13 -2 0 7
5 10 10 7 6 -4 10 6 11 22 0 25 1 26 9 8 5 -11 9 -30 9 -42 1 -19 -6 -24 -39
-29 -22 -4 -40 -12 -40 -19 0 -7 -7 -19 -16 -26 -15 -12 -15 -14 5 -19 22 -5
22 -5 -7 -38 -16 -17 -38 -32 -48 -32 -25 0 -66 -29 -59 -41 4 -5 2 -9 -4 -9
-13 0 -65 -52 -67 -67 -2 -9 4 -9 19 2 26 18 46 20 29 3 -16 -16 -15 -33 1
-20 9 8 12 4 14 -15 1 -19 -1 -22 -8 -12 -6 9 -9 10 -9 2 0 -19 21 -27 32 -12
7 11 11 11 15 1 2 -6 9 -10 14 -6 5 3 9 -1 10 -8 0 -7 5 -4 10 7 8 17 9 16 6
-7 -6 -41 10 -34 17 7 4 19 16 39 26 45 11 6 20 8 20 5 0 -3 6 0 14 7 7 7 11
19 8 27 -3 9 -1 12 6 7 7 -4 12 -3 12 3 0 13 24 8 46 -9 17 -14 18 -14 5 2
-14 19 -8 53 9 43 6 -3 14 4 19 17 6 14 10 17 11 8 1 -10 4 -9 10 5 l9 20 1
-20 c1 -18 2 -17 15 5 12 23 14 23 21 7 4 -13 0 -23 -14 -33 -25 -17 -47 -106
-32 -133 6 -12 6 -30 0 -52 -12 -41 -12 -42 -1 -35 5 4 12 0 14 -6 4 -10 8
-10 15 1 7 10 11 10 14 1 2 -7 10 6 17 30 19 65 30 37 35 -91 l4 -114 -62 0
c-41 1 -72 -5 -93 -17 -33 -17 -33 -17 -20 2 6 11 27 26 45 32 48 18 42 44
-10 46 -40 2 -48 -2 -100 -54 -32 -31 -58 -62 -58 -69 0 -7 -15 -22 -33 -33
-26 -15 -37 -17 -49 -8 -8 6 -13 17 -10 24 3 10 7 10 17 2 10 -9 20 -7 39 5
21 14 24 20 15 42 -7 19 -6 28 2 33 8 6 8 9 0 14 -6 4 -9 11 -6 16 3 5 1 11
-4 14 -6 4 -6 18 -1 36 5 17 10 34 11 38 1 4 5 17 10 30 9 24 11 67 3 45 -4
-8 -12 -5 -25 8 -11 11 -24 17 -29 14 -6 -4 -10 -1 -10 5 0 7 -7 10 -15 6 -9
-3 -15 0 -15 9 0 8 -4 15 -10 15 -14 0 -12 -23 3 -39 10 -10 9 -12 -3 -9 -8 2
-20 14 -27 28 -7 14 -12 19 -13 12 0 -7 -4 -11 -9 -8 -4 3 -6 -7 -4 -22 4 -24
3 -25 -8 -8 -9 15 -13 16 -20 5 -5 -8 -2 -23 7 -36 18 -29 7 -30 -17 -1 -23
26 -25 7 -3 -30 14 -23 14 -24 1 -8 -9 10 -23 16 -31 13 -9 -4 -20 1 -25 11
-5 9 -13 14 -17 10 -3 -4 -15 -3 -25 3 -14 7 -19 6 -19 -2 0 -7 -3 -9 -7 -6
-3 4 -14 0 -24 -9 -11 -10 -19 -12 -24 -5 -3 6 -11 11 -16 11 -6 0 -7 -4 -4
-10 3 -5 -1 -10 -10 -10 -12 0 -15 -5 -11 -16 3 -9 3 -21 -1 -27 -11 -17 -14
-49 -9 -73 4 -14 23 -28 56 -42 27 -12 50 -26 50 -31 0 -6 6 -11 14 -11 8 0
24 -12 35 -26 12 -15 21 -21 21 -14 0 9 6 7 20 -5 22 -20 18 -37 -8 -29 -9 2
-7 -1 6 -7 21 -12 30 -28 15 -30 -5 0 -20 -3 -34 -5 -17 -3 -29 1 -32 10 -4
11 -1 13 11 9 15 -5 14 -3 -2 16 -17 18 -17 21 -3 15 9 -3 17 -4 17 -1 0 13
-152 79 -171 74 -12 -3 -18 -3 -15 1 12 11 -84 50 -117 46 -18 -1 -39 -3 -47
-4 -8 -1 1 -7 20 -13 l35 -11 -40 -4 -40 -4 35 -13 c28 -10 35 -17 33 -36 l-2
-24 11 23 c10 20 17 23 47 18 20 -3 41 -7 48 -8 7 -1 10 -5 7 -9 -2 -4 1 -9 7
-11 5 -2 13 -22 16 -45 5 -39 4 -41 -15 -36 -20 5 -105 -29 -128 -52 -17 -17
9 -34 44 -29 l30 5 -12 -33 c-6 -18 -15 -39 -20 -47 -7 -11 -5 -13 7 -8 20 7
21 3 7 -23 -5 -10 -7 -26 -4 -34 5 -14 8 -14 21 -1 8 8 15 24 16 34 1 14 5 17
13 11 6 -6 15 -6 19 -2 5 4 5 -2 2 -13 -7 -18 -6 -19 6 -3 11 14 16 15 26 5
10 -9 15 -8 26 7 16 22 56 29 67 12 5 -6 8 0 9 14 1 14 2 32 3 40 0 8 12 17
26 19 14 1 28 8 31 13 9 15 32 -1 25 -17 -7 -18 23 -28 40 -14 12 10 13 9 8
-5 -3 -9 -1 -16 6 -16 6 0 9 -4 6 -9 -3 -5 -1 -23 5 -41 12 -33 10 -41 -29
-114 -8 -16 -10 -26 -3 -22 7 5 11 0 11 -13 0 -10 6 -21 13 -24 21 -8 -9 -15
-268 -58 -137 -22 -253 -46 -257 -53 -5 -6 -7 -18 -5 -26 2 -13 1121 -15 9989
-18 9339 -2 9986 -1 9992 15 4 9 1 22 -6 29 -7 7 -110 29 -228 49 -118 20
-229 39 -247 42 -39 6 -46 23 -36 82 4 25 6 53 5 61 -2 9 0 11 5 5 7 -10 16
-11 50 -7 7 1 10 8 7 16 -6 17 12 31 21 16 3 -5 17 -10 30 -10 25 0 33 -13 30
-47 -1 -13 2 -23 7 -23 4 0 8 4 8 9 0 8 21 8 40 1 3 -1 8 -2 13 -1 4 0 7 -5 7
-13 0 -21 21 -31 31 -15 7 11 11 10 24 -6 14 -19 15 -19 8 -1 -4 13 -3 17 5
12 7 -4 12 -2 12 3 0 21 16 11 17 -11 1 -12 9 -28 18 -37 13 -14 15 -13 16 4
2 26 2 27 -6 48 -6 14 -4 16 11 10 15 -5 17 -4 8 8 -6 8 -14 27 -18 42 -4 17
-11 25 -18 21 -7 -4 -8 -3 -4 5 4 6 20 10 34 8 15 -2 35 1 44 7 15 9 15 11 -4
28 -12 10 -26 18 -32 18 -6 0 -22 9 -35 19 -19 15 -31 17 -49 10 -25 -10 -25
-9 -18 38 3 26 11 52 18 58 8 7 9 6 3 -5 -6 -11 -3 -10 12 2 29 26 77 23 91
-4 11 -22 11 -22 6 3 -5 24 -2 28 33 37 l38 10 -45 1 c-33 1 -41 4 -30 11 8 5
25 10 38 10 13 0 21 4 18 9 -10 15 -98 6 -138 -14 -20 -10 -35 -23 -31 -28 3
-5 -2 -5 -13 1 -22 11 -35 7 -82 -24 -19 -13 -43 -24 -52 -24 -10 0 -23 -7
-30 -15 -11 -13 -10 -14 6 -9 18 7 18 6 -1 -16 l-20 -23 20 7 c18 6 18 5 5 -8
-9 -9 -25 -13 -42 -9 -34 6 -35 16 -5 32 l22 11 -22 -6 c-29 -7 -29 7 -1 32
14 13 19 14 14 4 -5 -8 5 0 22 17 16 18 32 29 36 26 3 -4 13 2 21 13 7 11 32
26 54 33 28 8 43 19 46 34 6 25 3 56 -7 73 -4 6 -6 21 -3 32 3 16 0 19 -12 15
-10 -4 -14 -2 -9 5 3 6 2 13 -4 17 -5 3 -10 1 -10 -4 0 -17 -27 -13 -34 5 -5
13 -9 14 -21 4 -13 -11 -14 -10 -9 6 7 19 7 19 -14 0 -17 -14 -22 -16 -22 -5
-1 10 -5 8 -16 -6 -8 -11 -22 -19 -30 -17 -9 2 -22 -5 -30 -15 -7 -10 -14 -13
-14 -7 0 5 7 19 15 30 21 28 18 43 -4 16 -23 -27 -35 -29 -21 -3 13 24 13 51
1 51 -5 0 -12 -8 -15 -17 -3 -10 -4 -6 -2 8 1 16 -2 26 -10 26 -7 0 -11 -4 -8
-8 2 -4 -4 -7 -15 -6 -15 1 -17 4 -9 14 8 10 6 13 -6 13 -9 0 -16 -7 -16 -15
0 -9 -6 -12 -15 -9 -8 4 -15 2 -15 -4 0 -5 -8 -9 -17 -8 -10 0 -17 -5 -15 -12
1 -8 -2 -11 -8 -7 -5 3 -10 0 -10 -7 0 -9 -3 -9 -10 2 -8 12 -10 10 -10 -10 0
-14 6 -34 13 -45 7 -11 13 -27 12 -35 -1 -8 3 -23 7 -32 6 -12 5 -18 -3 -18
-6 0 -9 -7 -5 -15 3 -8 -2 -19 -12 -24 -16 -10 -16 -10 0 -11 13 0 15 -6 9
-27 -6 -22 -3 -32 12 -45 24 -21 34 -22 40 -5 4 9 8 8 16 -3 5 -8 8 -17 5 -19
-8 -8 -74 -8 -69 0 3 4 -2 9 -10 13 -8 3 -15 12 -15 20 0 14 -85 101 -114 118
-6 3 -26 8 -45 10 -27 2 -35 -1 -42 -19 -7 -18 -5 -23 9 -23 24 0 82 -37 82
-52 0 -9 -3 -8 -10 2 -5 8 -10 12 -10 7 0 -4 -11 -1 -24 8 -13 9 -36 15 -52
13 -16 -1 -44 -1 -63 0 l-34 2 5 115 c2 63 8 118 12 122 9 10 25 -14 33 -52 6
-25 7 -27 14 -10 7 19 8 19 8 1 1 -15 4 -16 15 -7 11 9 14 35 13 108 -2 86 -4
97 -25 114 -16 13 -22 25 -17 38 6 20 6 20 26 0 10 -10 19 -25 20 -31 0 -7 4
-4 9 7 7 16 9 17 9 3 1 -9 5 -20 11 -23 6 -4 7 1 4 12 -4 12 0 10 11 -6 15
-20 16 -27 5 -45 -12 -20 -12 -20 7 -4 22 20 43 23 43 7 0 -5 5 -7 12 -3 7 5
9 2 6 -7 -3 -8 1 -20 8 -27 8 -7 14 -10 14 -7 0 3 8 1 19 -4 10 -6 22 -25 26
-43 4 -18 9 -27 12 -20 2 6 9 10 14 6 5 -3 9 -1 9 4 0 16 33 24 42 10 6 -11 8
-10 8 0 0 7 5 10 10 7 13 -8 13 1 -2 28 -10 21 -10 21 7 7 17 -14 18 -14 6 8
-13 25 -4 28 25 8 39 -28 23 11 -17 41 -21 15 -40 36 -42 46 -3 10 -19 20 -37
23 -39 8 -102 67 -77 72 20 4 21 11 2 36 -8 10 -12 23 -9 27 3 5 -2 6 -11 3
-24 -9 -62 4 -67 23 -2 10 2 29 9 43 l13 25 0 -28 c0 -16 4 -26 10 -22 6 3 10
0 10 -7 1 -9 5 -7 14 5 18 23 25 22 36 -9 6 -14 14 -22 20 -19 5 3 10 -3 10
-15 0 -12 5 -18 10 -15 6 4 8 11 4 16 -3 6 3 5 14 -2 12 -7 17 -19 14 -31 -2
-10 1 -18 7 -18 6 0 11 8 11 18 0 14 2 15 10 2 5 -8 10 -11 10 -6 0 6 7 1 15
-10 15 -19 16 -19 13 1 -3 23 18 23 66 -1 36 -17 44 -18 28 -2 -7 7 -12 20
-12 30 0 15 6 17 35 14 19 -2 43 -7 55 -11 24 -8 25 -2 4 20 -15 15 -14 15 11
9 19 -5 26 -3 21 4 -3 6 0 13 6 16 7 3 -3 3 -22 1 l-35 -5 30 14 c25 12 27 15
10 17 -12 1 -6 5 15 9 l35 7 -30 3 c-30 2 -30 2 -5 10 21 7 22 8 5 9 -15 1
-17 3 -7 10 9 5 -11 10 -52 13 -71 6 -96 22 -96 60 0 16 3 19 9 10 10 -17 22
34 16 69 -4 21 -3 21 7 -3 14 -33 31 -38 19 -5 -4 12 -6 28 -4 35 8 22 32 -6
39 -46 7 -33 8 -34 16 -13 4 12 5 28 1 34 -4 7 2 5 13 -3 18 -14 18 -14 2 6
-10 11 -18 24 -18 27 0 12 45 8 59 -5 10 -11 11 -9 5 6 -6 16 -2 18 40 15 37
-3 46 -1 44 11 -4 17 -81 33 -117 25 -13 -4 -36 -1 -51 5 -23 10 -35 8 -70 -9
-45 -22 -60 -20 -60 7 0 13 2 13 15 -4 10 -12 13 -14 10 -3 -6 17 23 34 79 44
31 6 34 9 23 26 -6 10 -19 19 -27 19 -13 0 -13 1 0 10 11 7 7 10 -19 10 -30 0
-32 -2 -20 -17 11 -15 10 -15 -9 1 -22 19 -22 19 -62 -9 -22 -15 -45 -34 -51
-41 -6 -8 -16 -14 -21 -14 -5 0 -17 -8 -26 -19 -15 -16 -81 -46 -88 -39 -1 2
-4 19 -6 38 -2 29 0 35 15 34 18 -2 18 -1 0 18 -13 16 -15 22 -5 25 10 4 10 8
2 18 -8 10 -8 19 0 35 6 12 9 27 7 35 -7 17 22 57 35 49 6 -4 8 -3 5 3 -4 6 0
19 8 29 8 10 14 30 14 44 0 14 -3 19 -6 13 -7 -20 -23 -15 -23 6 0 20 -32 37
-50 26 -5 -3 -10 1 -10 9 0 24 -31 19 -38 -6 -4 -18 -8 -14 -23 23 -11 28 -18
37 -19 24 l-1 -20 -9 20 c-6 17 -9 14 -16 -20 l-8 -40 -7 35 c-7 34 -8 34 -6
-7 3 -49 -7 -57 -18 -16 -6 27 -7 27 -21 9 -13 -18 -12 -32 3 -73 11 -28 -17
-11 -34 20 -13 24 -18 28 -21 15 -2 -9 2 -27 9 -40 19 -35 21 -52 3 -37 -7 6
-11 16 -8 21 4 7 -7 9 -30 6 -29 -3 -36 -1 -36 13 0 9 -7 19 -15 23 -8 3 -15
0 -15 -6 0 -7 -7 -3 -15 8 -8 10 -15 15 -15 9 0 -5 -5 -3 -10 5 -8 12 -10 12
-11 -5 l0 -20 -9 20 c-8 19 -8 19 -18 -5 -9 -22 -11 -22 -12 -5 -1 19 -2 18
-10 -2 -10 -26 -28 -30 -36 -10 -8 21 -32 16 -26 -5 5 -21 -8 -24 -27 -5 -11
9 -13 9 -7 0 5 -8 1 -13 -10 -13 -16 0 -16 -1 2 -15 19 -15 19 -15 -3 -34 -21
-17 -21 -20 -6 -32 10 -8 14 -9 10 -2 -4 6 -3 14 2 17 16 10 22 -11 7 -23 -8
-7 -13 -23 -12 -36 3 -20 0 -22 -19 -15 -22 8 -22 7 -12 -21 10 -26 76 -69
107 -69 5 0 10 -4 10 -10 0 -5 3 -9 8 -9 19 3 23 -2 12 -17 -8 -8 -9 -14 -4
-13 25 4 44 -3 44 -17 0 -8 5 -12 10 -9 7 4 9 -3 5 -22 -3 -15 -2 -22 1 -15 5
10 10 9 21 -5 13 -17 14 -17 9 0 -8 25 6 20 27 -9 10 -14 16 -32 13 -40 -5
-13 -10 -13 -37 1 -17 9 -29 12 -25 7 3 -5 19 -15 35 -22 16 -6 32 -17 34 -24
7 -16 -98 -22 -108 -6 -11 17 3 24 20 10 23 -19 18 4 -5 25 -24 21 -26 37 -5
29 8 -4 15 -1 15 5 0 7 -21 21 -47 32 -25 11 -61 33 -80 49 -18 17 -39 31 -46
32 -7 0 -16 2 -22 3 -5 2 -15 3 -21 4 -16 1 -23 49 -25 165 -2 114 -6 136 -25
136 -8 0 -14 7 -14 16 0 16 -53 16 -252 -1 l-47 -5 -3 58 c-3 56 -3 57 -35 60
-21 2 -33 9 -33 18 0 8 -4 14 -10 14 -5 0 -10 14 -10 30 l0 30 -94 0 c-83 0
-94 2 -92 18 1 15 -10 17 -76 20 -46 2 -78 7 -78 13 0 11 -81 7 -132 -6 l-28
-7 0 745 c0 739 0 745 20 758 12 8 22 28 24 44 3 25 8 30 30 31 15 1 31 5 36
10 8 9 130 789 130 835 0 31 -13 36 -87 34 -51 -1 -53 0 -53 26 0 37 79 280
97 301 17 19 21 64 6 79 -5 5 -52 19 -104 31 -75 17 -127 22 -264 22 -312 2
-460 -47 -386 -128 20 -23 101 -269 101 -309 0 -24 -2 -25 -58 -20 -64 6 -94
-10 -86 -44 2 -10 13 -79 24 -153 107 -718 102 -694 151 -685 14 3 19 -2 19
-21 0 -13 9 -33 20 -44 19 -19 20 -38 20 -1162 0 -629 0 -1148 0 -1154 0 -8
-41 -11 -132 -10 l-133 1 -3 118 -3 117 -68 0 c-57 0 -71 -3 -89 -23 -20 -21
-21 -33 -21 -187 l0 -165 -30 -3 -31 -3 0 1160 0 1161 35 0 35 0 0 135 0 135
-1010 0 -1010 0 0 -135 0 -135 35 0 35 0 -2 -1047 -3 -1048 -47 -3 -48 -3 0
378 0 378 -105 105 -105 105 0 426 0 427 -62 51 -63 51 -100 0 -100 0 0 473 0
472 -430 0 -430 0 -3 -262 -2 -263 -125 0 -125 0 0 -617 0 -618 -78 -84 -77
-85 -5 500 -5 499 -65 -3 c-36 -2 -80 0 -97 3 l-33 6 0 139 0 140 -80 0 -80 0
0 125 0 125 -225 0 -225 0 0 -205 0 -205 -80 0 -80 0 0 -65 0 -65 -125 0 -125
0 -6 -25 c-3 -14 -4 -41 -2 -60 l4 -35 -48 0 -48 0 0 -440 0 -439 -106 -3
-106 -3 2 -207 1 -208 -51 0 -50 0 0 355 0 355 -130 0 -130 0 0 45 0 45 -59 0
c-58 0 -59 1 -65 31 -3 17 -6 409 -6 870 0 462 -3 839 -6 839 -3 0 -30 -20
-61 -45 -30 -25 -60 -45 -66 -45 -7 -1 -145 18 -309 41 l-296 42 -64 73 -63
72 -70 -74 -70 -73 -301 -43 -301 -42 -58 46 c-33 26 -63 44 -67 42 -5 -3 -8
-483 -8 -1067 l0 -1062 -90 -3 -90 -3 0 31 0 30 -65 0 -65 0 0 -35 0 -35 -149
0 -149 0 2 -45 2 -45 -48 0 c-41 0 -48 3 -48 20 0 13 -7 20 -20 20 -20 0 -20
7 -20 1010 l0 1010 -765 0 -765 0 0 -1025 0 -1026 -32 5 c-18 3 -62 8 -98 11
-102 8 -172 15 -207 21 -31 5 -33 8 -33 44 l0 40 43 0 44 0 -1 118 -1 117 -75
5 -75 5 0 90 0 90 -290 0 -290 0 -3 -92 -3 -92 -72 -3 -72 -3 0 -115 0 -115
43 -3 c42 -3 42 -4 42 -41 0 -46 -2 -47 -140 -57 -52 -3 -98 -8 -102 -11 -5
-2 -8 660 -8 1471 0 1399 -1 1476 -17 1476 -10 1 -34 3 -53 5 -52 7 -559 55
-567 54 -5 -1 -116 -29 -248 -63z m-1025 -2831 c0 -1437 -3 -2165 -10 -2165
-7 0 -10 728 -10 2165 0 1437 3 2165 10 2165 7 0 10 -728 10 -2165z m27 -1082
c-1 -598 -2 -111 -2 1082 0 1194 1 1683 2 1088 2 -595 2 -1571 0 -2170z m43
1082 c0 -1437 -3 -2165 -10 -2165 -7 0 -10 728 -10 2165 0 1437 3 2165 10
2165 7 0 10 -728 10 -2165z m27 -1082 c-1 -598 -2 -111 -2 1082 0 1194 1 1683
2 1088 2 -595 2 -1571 0 -2170z m43 1081 c0 -1441 -3 -2163 -10 -2159 -14 9
-14 4325 0 4325 7 0 10 -729 10 -2166z m27 -1081 c-1 -598 -2 -111 -2 1082 0
1194 1 1683 2 1088 2 -595 2 -1571 0 -2170z m40 0 c-1 -598 -2 -111 -2 1082 0
1194 1 1683 2 1088 2 -595 2 -1571 0 -2170z m43 1088 c0 -1429 -3 -2162 -10
-2166 -7 -4 -10 718 -10 2159 0 1437 3 2166 10 2166 7 0 10 -726 10 -2159z
m30 -7 c0 -1441 -3 -2163 -10 -2159 -14 9 -14 4325 0 4325 7 0 10 -729 10
-2166z m40 7 c0 -1429 -3 -2162 -10 -2166 -7 -4 -10 718 -10 2159 0 1437 3
2166 10 2166 7 0 10 -726 10 -2159z m30 -7 c0 -1441 -3 -2163 -10 -2159 -14 9
-14 4325 0 4325 7 0 10 -729 10 -2166z m27 -1081 c-1 -598 -2 -111 -2 1082 0
1194 1 1683 2 1088 2 -595 2 -1571 0 -2170z m40 0 c-1 -598 -2 -111 -2 1082 0
1194 1 1683 2 1088 2 -595 2 -1571 0 -2170z m43 1082 c0 -1437 -3 -2165 -10
-2165 -7 0 -10 728 -10 2165 0 1437 3 2165 10 2165 7 0 10 -728 10 -2165z m27
-1082 c-1 -598 -2 -111 -2 1082 0 1194 1 1683 2 1088 2 -595 2 -1571 0 -2170z
m43 1082 c0 -1437 -3 -2165 -10 -2165 -7 0 -10 728 -10 2165 0 1437 3 2165 10
2165 7 0 10 -728 10 -2165z m27 -1082 c-1 -598 -2 -111 -2 1082 0 1194 1 1683
2 1088 2 -595 2 -1571 0 -2170z m43 1082 c0 -1437 -3 -2165 -10 -2165 -7 0
-10 728 -10 2165 0 1437 3 2165 10 2165 7 0 10 -728 10 -2165z m27 -1082 c-1
-598 -2 -111 -2 1082 0 1194 1 1683 2 1088 2 -595 2 -1571 0 -2170z m43 1081
c0 -1441 -3 -2163 -10 -2159 -14 9 -14 4325 0 4325 7 0 10 -729 10 -2166z
m13266 2034 c-3 -13 -6 -38 -6 -55 l0 -33 -170 0 c-155 0 -170 2 -170 18 0 9
-3 34 -6 55 l-7 37 183 0 182 0 -6 -22z m-7449 -1331 c-1 -232 -2 -42 -2 423
0 465 1 655 2 422 2 -232 2 -612 0 -845z m-240 -134 c-1 -257 -2 -49 -2 462 0
512 1 722 2 468 2 -254 2 -672 0 -930z m43 487 c0 -593 -3 -900 -10 -900 -7 0
-10 307 -10 900 0 593 3 900 10 900 7 0 10 -307 10 -900z m240 63 c0 -460 -2
-834 -5 -831 -8 8 -11 1668 -2 1668 4 0 7 -377 7 -837z m-393 -560 c-1 -257
-2 -49 -2 462 0 512 1 722 2 468 2 -254 2 -672 0 -930z m43 467 c0 -607 -3
-920 -10 -920 -7 0 -10 313 -10 920 0 607 3 920 10 920 7 0 10 -313 10 -920z
m40 -5 c-1 -567 -5 -917 -10 -920 -6 -4 -10 337 -10 920 0 629 3 924 10 920 7
-4 10 -307 10 -920z m350 94 c-1 -489 -5 -821 -11 -824 -5 -4 -9 318 -9 825 0
566 3 829 10 825 7 -4 10 -275 10 -826z m27 -417 c-1 -229 -2 -41 -2 418 0
459 1 647 2 417 2 -229 2 -605 0 -835z m-489 151 c-1 -599 -1 -1050 2 -1004
l5 85 94 0 c66 1 95 -3 98 -11 4 -9 29 -13 79 -13 l74 0 0 -34 c0 -39 -11 -44
-94 -42 -31 0 -56 -2 -56 -6 0 -5 34 -8 75 -8 l75 0 0 -35 c0 -19 -1 -35 -2
-36 -2 0 -33 -3 -71 -6 -50 -3 -68 -1 -72 9 -4 10 -28 13 -93 11 -125 -2 -122
-1 -122 -20 0 -11 3 -14 8 -7 8 13 186 14 198 2 4 -5 40 -8 81 -8 l73 0 0 -35
c0 -39 0 -39 -102 -35 -29 1 -48 -3 -48 -9 0 -7 28 -11 75 -11 l75 0 0 -34 c0
-26 -5 -35 -22 -40 -34 -9 -116 -7 -122 3 -3 4 -51 8 -106 8 -55 0 -103 -4
-106 -8 -3 -5 10 -9 28 -10 18 0 67 -1 108 -3 41 -1 108 -3 148 -4 l73 -2 -3
-37 -3 -38 -72 3 c-48 2 -73 0 -73 -7 0 -7 28 -11 75 -11 l75 0 0 -35 c0 -19
-1 -35 -2 -36 -2 0 -32 -3 -68 -6 -88 -7 -89 -13 -1 -13 l72 0 -3 -37 c-3 -35
-5 -38 -33 -37 -16 1 -49 2 -72 3 -36 1 -43 4 -43 21 0 19 -7 20 -99 20 -58 0
-101 4 -103 10 -1 6 -2 -116 0 -270 2 -193 0 -280 -7 -280 -8 0 -11 470 -11
1570 0 1128 3 1570 11 1570 8 0 10 -306 7 -1087z m532 260 c0 -549 -4 -823
-10 -813 -6 9 -8 93 -6 215 3 110 5 476 5 813 1 336 3 612 6 612 3 0 5 -372 5
-827z m40 9 c0 -504 -4 -813 -10 -822 -6 -10 -10 275 -10 813 0 550 3 826 10
822 7 -4 10 -286 10 -813z m27 -425 c-1 -227 -2 -38 -2 418 0 457 1 642 2 412
2 -230 2 -604 0 -830z m-680 -1065 c-1 -422 -2 -76 -2 768 0 844 1 1190 2 767
2 -422 2 -1112 0 -1535z m43 731 c0 -978 -4 -1562 -10 -1553 -13 21 -14 3120
0 3120 7 0 10 -512 10 -1567z m680 787 c0 -513 -3 -780 -10 -780 -7 0 -10 267
-10 780 0 513 3 780 10 780 7 0 10 -267 10 -780z m27 -393 c-1 -215 -2 -39 -2
393 0 432 1 608 2 392 2 -215 2 -569 0 -785z m-820 -1160 c-1 -425 -2 -74 -2
778 0 853 1 1200 2 772 2 -428 2 -1126 0 -1550z m43 798 c0 -1010 -3 -1525
-10 -1525 -7 0 -10 515 -10 1525 0 1010 3 1525 10 1525 7 0 10 -515 10 -1525z
m820 749 c0 -513 -3 -773 -10 -769 -13 8 -13 1545 0 1545 6 0 10 -283 10 -776z
m40 -4 c0 -510 -3 -770 -10 -770 -7 0 -10 262 -10 776 0 485 4 773 9 769 6 -3
10 -303 11 -775z m-1000 -221 c-1 -609 -5 -979 -11 -979 -5 0 -9 372 -9 986 0
660 3 983 10 979 7 -4 10 -337 10 -986z m30 -496 c0 -817 -3 -1483 -7 -1479
-5 4 -8 673 -8 1487 0 813 3 1479 8 1479 4 0 7 -669 7 -1487z m40 2 c0 -991
-3 -1476 -10 -1480 -7 -4 -10 472 -10 1480 0 931 4 1484 9 1480 6 -3 10 -565
11 -1480z m960 715 c0 -494 -4 -770 -10 -770 -6 0 -10 276 -10 770 0 494 4
770 10 770 7 0 10 -276 10 -770z m40 -12 c0 -492 -4 -758 -10 -758 -7 0 -10
271 -10 773 0 498 4 767 10 757 6 -9 10 -305 10 -772z m-1141 -208 c0 -618 -3
-970 -9 -970 -6 0 -10 354 -10 976 0 628 3 973 10 969 6 -4 9 -360 9 -975z
m29 -2 c-2 -621 -5 -854 -8 -633 -10 647 -10 1615 0 1615 6 0 9 -360 8 -982z
m1142 217 c0 -502 -3 -765 -10 -765 -7 0 -10 263 -10 765 1 485 4 765 10 765
6 0 10 -280 10 -765z m40 7 c0 -473 -4 -753 -10 -762 -6 -10 -10 247 -10 753
0 485 4 766 10 762 5 -3 9 -290 10 -753z m-1280 -222 c0 -640 -3 -970 -10
-970 -7 0 -10 330 -10 970 0 640 3 970 10 970 7 0 10 -330 10 -970z m27 -487
c-1 -269 -2 -49 -2 487 0 536 1 756 2 488 2 -269 2 -707 0 -975z m1283 711 c0
-503 -3 -743 -10 -739 -11 7 -14 1468 -3 1479 4 3 8 6 10 6 2 0 3 -336 3 -746z
m-1380 -230 c0 -648 -3 -963 -10 -959 -11 7 -14 1908 -3 1919 4 3 8 6 10 6 2
0 3 -435 3 -966z m27 -481 c-1 -268 -2 -51 -2 482 0 534 1 753 2 488 2 -265 2
-701 0 -970z m1423 707 c0 -487 -3 -740 -10 -740 -7 0 -10 253 -10 740 0 487
3 740 10 740 7 0 10 -253 10 -740z m-1481 -225 c1 -631 -2 -955 -9 -955 -7 0
-10 324 -10 955 0 596 4 955 9 955 6 0 10 -360 10 -955z m1551 226 c0 -482 -3
-732 -10 -736 -7 -4 -10 236 -10 729 0 471 4 736 10 736 6 0 10 -263 10 -729z
m6743 677 c-2 -24 -6 -49 -9 -55 -2 -10 -41 -13 -149 -13 -131 0 -145 2 -145
18 0 9 -3 34 -6 55 l-7 37 161 0 160 0 -5 -42z m-13103 -2048 c0 -1268 -3
-1921 -10 -1925 -7 -4 -10 640 -10 1925 0 1285 3 1929 10 1925 7 -4 10 -657
10 -1925z m30 -1 c0 -1284 -3 -1928 -10 -1924 -11 7 -15 3837 -3 3848 3 4 8 7
10 7 2 0 3 -869 3 -1931z m70 0 c0 -1284 -3 -1928 -10 -1924 -11 7 -15 3837
-3 3848 3 4 8 7 10 7 2 0 3 -869 3 -1931z m40 1 c0 -1268 -3 -1921 -10 -1925
-7 -4 -10 640 -10 1925 0 1285 3 1929 10 1925 7 -4 10 -657 10 -1925z m307
-968 c-1 -532 -2 -96 -2 968 0 1064 1 1500 2 967 2 -532 2 -1402 0 -1935z m83
968 c0 -1268 -3 -1921 -10 -1925 -7 -4 -10 640 -10 1925 0 1285 3 1929 10
1925 7 -4 10 -657 10 -1925z m100 -1 c0 -1284 -3 -1928 -10 -1924 -11 7 -15
3837 -3 3848 3 4 8 7 10 7 2 0 3 -869 3 -1931z m-670 -5 c0 -1281 -3 -1923
-10 -1919 -7 4 -10 657 -10 1926 0 1273 3 1919 10 1919 7 0 10 -649 10 -1926z
m110 7 c0 -1269 -3 -1922 -10 -1926 -7 -4 -10 638 -10 1919 0 1277 3 1926 10
1926 7 0 10 -646 10 -1919z m97 -968 c-1 -532 -2 -100 -2 962 0 1062 1 1497 2
968 2 -529 2 -1397 0 -1930z m43 968 c0 -1269 -3 -1922 -10 -1926 -7 -4 -10
638 -10 1919 0 1277 3 1926 10 1926 7 0 10 -646 10 -1919z m27 -968 c-1 -532
-2 -100 -2 962 0 1062 1 1497 2 968 2 -529 2 -1397 0 -1930z m43 962 c0 -1277
-3 -1925 -10 -1925 -7 0 -10 648 -10 1925 0 1277 3 1925 10 1925 7 0 10 -648
10 -1925z m27 -962 c-1 -532 -2 -100 -2 962 0 1062 1 1497 2 968 2 -529 2
-1397 0 -1930z m43 962 c0 -1277 -3 -1925 -10 -1925 -7 0 -10 648 -10 1925 0
1277 3 1925 10 1925 7 0 10 -648 10 -1925z m27 -962 c-1 -532 -2 -100 -2 962
0 1062 1 1497 2 968 2 -529 2 -1397 0 -1930z m43 962 c0 -1277 -3 -1925 -10
-1925 -7 0 -10 648 -10 1925 0 1277 3 1925 10 1925 7 0 10 -648 10 -1925z m70
-1 c0 -1281 -3 -1923 -10 -1919 -7 4 -10 657 -10 1926 0 1273 3 1919 10 1919
7 0 10 -649 10 -1926z m70 0 c0 -1281 -3 -1923 -10 -1919 -7 4 -10 657 -10
1926 0 1273 3 1919 10 1919 7 0 10 -649 10 -1926z m40 7 c0 -1269 -3 -1922
-10 -1926 -7 -4 -10 638 -10 1919 0 1277 3 1926 10 1926 7 0 10 -646 10 -1919z
m12478 1837 l-3 -53 -115 -2 c-64 -1 -120 1 -126 5 -6 4 -13 28 -16 55 l-6 47
135 0 134 0 -3 -52z m-4289 -828 c0 -367 -3 -581 -9 -585 -7 -4 -10 202 -10
585 0 368 4 589 9 585 6 -3 10 -233 10 -585z m341 -1 c0 -382 -3 -588 -10
-584 -10 6 -14 1151 -4 1167 3 4 7 8 10 8 2 0 4 -266 4 -591z m-470 -5 c0
-380 -3 -583 -10 -579 -10 6 -14 1141 -4 1157 3 4 7 8 10 8 2 0 4 -264 4 -586z
m190 1 c0 -383 -3 -585 -10 -585 -7 0 -10 202 -10 585 0 383 3 585 10 585 7 0
10 -202 10 -585z m30 -2 c0 -391 -4 -583 -10 -573 -13 20 -12 1160 1 1160 5 0
9 -232 9 -587z m159 15 c0 -348 -3 -579 -9 -588 -6 -10 -10 195 -10 573 0 361
4 587 9 587 6 0 10 -220 10 -572z m30 0 c0 -347 -3 -579 -9 -588 -6 -10 -10
196 -10 573 0 366 4 587 10 587 5 0 9 -216 9 -572z m31 -14 c0 -377 -3 -583
-10 -579 -13 8 -13 1165 0 1165 6 0 10 -212 10 -586z m159 1 c0 -364 -3 -576
-9 -580 -7 -4 -10 200 -10 580 0 363 4 584 9 580 6 -3 10 -233 10 -580z
m-3131 -607 c9 -9 12 -9 12 0 0 9 20 12 73 10 l72 -3 0 -35 0 -35 -72 -3 c-53
-2 -73 1 -73 10 0 9 -3 9 -12 0 -7 -7 -40 -12 -80 -12 l-68 0 0 40 0 40 68 0
c40 0 73 -5 80 -12z m157 -118 l0 -35 -72 -3 c-65 -3 -73 -1 -73 15 -1 17 -1
17 -11 1 -8 -15 -24 -18 -79 -18 l-70 0 0 40 0 40 153 -3 152 -2 0 -35z m-154
-62 c0 -10 2 -10 6 0 3 8 29 12 79 12 l75 0 -3 -37 -3 -38 -72 -3 c-53 -2 -73
1 -73 10 0 9 -3 9 -12 0 -7 -7 -40 -12 -80 -12 l-68 0 0 40 0 40 75 0 c53 0
75 -4 76 -12z m1106 -1605 c-1 -290 -2 -55 -2 522 0 578 1 815 2 528 2 -287 2
-759 0 -1050z m45 810 c-1 -417 -3 -888 -5 -1048 -1 -159 -3 181 -5 758 -1
576 1 1047 6 1047 4 0 6 -341 4 -757z m48 -290 c0 -677 -4 -1043 -10 -1033
-13 21 -13 2080 0 2080 7 0 10 -363 10 -1047z m37 -520 c-1 -290 -2 -55 -2
522 0 578 1 815 2 528 2 -287 2 -759 0 -1050z m53 527 c-1 -657 -4 -1041 -10
-1045 -7 -4 -10 370 -10 1039 0 692 3 1046 10 1046 7 0 10 -351 10 -1040z m37
-527 c-1 -290 -2 -55 -2 522 0 578 1 815 2 528 2 -287 2 -759 0 -1050z m53
522 c0 -659 -4 -1036 -10 -1040 -7 -4 -10 364 -10 1040 0 704 3 1044 10 1040
7 -4 10 -353 10 -1040z m40 -1 c0 -664 -3 -1043 -10 -1039 -13 8 -14 2085 0
2085 7 0 10 -351 10 -1046z m37 -521 c-1 -290 -2 -55 -2 522 0 578 1 815 2
528 2 -287 2 -759 0 -1050z m53 522 c0 -690 -3 -1045 -10 -1045 -7 0 -10 355
-10 1045 0 690 3 1045 10 1045 7 0 10 -355 10 -1045z m37 -522 c-1 -290 -2
-55 -2 522 0 578 1 815 2 528 2 -287 2 -759 0 -1050z m53 527 c-1 -651 -4
-1042 -10 -1045 -7 -4 -10 375 -10 1039 0 695 3 1046 10 1046 7 0 10 -349 10
-1040z m40 -6 c0 -662 -4 -1043 -10 -1039 -10 6 -15 2041 -4 2069 3 9 8 16 10
16 2 0 4 -471 4 -1046z m37 -521 c-1 -290 -2 -55 -2 522 0 578 1 815 2 528 2
-287 2 -759 0 -1050z m53 521 c0 -663 -4 -1043 -10 -1039 -13 8 -14 2085 0
2085 7 0 10 -341 10 -1046z m37 -521 c-1 -290 -2 -55 -2 522 0 578 1 815 2
528 2 -287 2 -759 0 -1050z m53 515 c-1 -649 -4 -1029 -10 -1033 -7 -4 -10
371 -10 1042 0 687 4 1043 10 1033 6 -10 10 -388 10 -1042z m37 -515 c-1 -290
-2 -55 -2 522 0 578 1 815 2 528 2 -287 2 -759 0 -1050z m40 0 c-1 -290 -2
-55 -2 522 0 578 1 815 2 528 2 -287 2 -759 0 -1050z m-1739 1489 l-3 -37 -72
-3 c-62 -3 -73 -1 -73 13 0 14 -2 15 -15 2 -10 -10 -34 -14 -77 -13 l-63 1 -3
37 -3 37 156 0 156 0 -3 -37z m2 -86 c0 -31 -3 -34 -37 -40 -21 -3 -55 -6 -75
-6 -33 0 -38 3 -39 23 0 21 -1 21 -9 1 -7 -18 -16 -20 -76 -20 l-69 1 -3 37
-3 37 155 0 156 0 0 -33z m-1652 -58 l3 -38 -270 0 c-173 0 -271 4 -272 10 -1
6 -1 19 -1 30 0 11 0 25 1 30 1 7 93 9 269 8 l267 -3 3 -37z m1652 -33 c0 -21
-5 -35 -12 -36 -21 -2 -50 -2 -98 2 -25 1 -50 0 -55 -3 -6 -3 -21 -5 -35 -3
-14 1 -44 3 -67 4 -42 1 -43 2 -43 36 l0 34 155 0 155 0 0 -34z m-160 -67 c0
-10 2 -10 9 0 5 9 28 12 77 10 l69 -3 3 -32 c2 -18 2 -33 0 -34 -46 -9 -131
-9 -142 0 -8 7 -17 8 -20 3 -2 -4 -36 -8 -73 -8 l-68 1 -3 38 -3 37 75 0 c54
0 76 -4 76 -12z m-2722 -195 c0 -98 -4 -173 -10 -180 -7 -9 -7 -13 1 -13 8 0
11 -14 9 -37 l-3 -38 -107 -3 -108 -3 0 41 c0 25 5 40 13 41 10 0 10 2 0 6 -9
3 -13 31 -13 89 0 60 4 84 13 85 10 0 10 2 0 6 -8 2 -13 22 -13 44 0 24 5 39
13 40 10 0 10 2 0 6 -8 2 -13 22 -13 44 l0 39 109 0 110 0 -1 -167z m2880 79
l-3 -37 -67 -3 c-38 -1 -69 2 -73 8 -4 6 -13 7 -23 2 -9 -5 -44 -9 -77 -8
l-60 1 -3 37 -3 37 156 0 156 0 -3 -37z m322 -423 c0 -16 -6 -30 -12 -31 -37
-4 -44 -4 -54 4 -7 5 -17 2 -24 -7 -9 -10 -9 -15 -1 -15 6 0 11 -13 11 -29 l0
-30 -76 0 -75 0 3 32 c3 27 7 32 31 33 15 1 30 -3 33 -8 3 -4 13 -4 23 2 10 5
21 7 25 5 3 -3 3 -2 0 3 -3 4 -11 7 -17 7 -7 0 -13 14 -15 32 l-3 32 75 0 76
0 0 -30z m-9930 -64 c0 15 1 15 16 1 8 -9 19 -14 24 -11 4 3 13 -2 20 -10 7
-8 17 -12 24 -8 6 3 2 -4 -9 -17 -11 -13 -14 -20 -7 -16 10 6 11 1 7 -17 -4
-14 -2 -28 4 -31 6 -4 13 5 17 21 7 24 8 25 15 8 6 -19 8 -18 17 5 11 25 11
25 11 2 1 -13 5 -20 11 -17 6 3 10 0 10 -7 0 -9 3 -9 10 2 7 12 10 8 11 -15 0
-16 3 -24 6 -17 2 6 9 12 14 12 4 0 6 -7 3 -15 -5 -11 -2 -13 10 -9 14 6 16
-13 16 -180 l0 -186 -45 0 c-32 0 -45 -4 -45 -14 0 -18 -19 -25 -58 -20 l-32
4 0 -65 0 -65 -85 0 -85 0 0 68 c0 37 -3 91 -7 121 -5 45 -4 53 8 49 15 -6 42
16 32 26 -4 3 1 6 9 6 17 0 19 35 3 59 -6 10 -3 10 16 0 22 -11 23 -11 10 4
-7 10 -10 17 -5 17 5 0 -2 7 -14 16 -13 9 -28 26 -33 38 -5 11 -16 31 -23 43
-8 14 -10 38 -6 65 3 24 2 60 -2 82 -9 42 -3 61 9 30 5 -10 18 -19 31 -20 18
0 21 4 17 20 -3 12 -2 15 1 9 3 -7 13 -13 21 -13 13 0 13 3 3 15 -7 8 -9 22
-6 31 6 15 8 15 31 0 23 -15 25 -15 25 -1z m9771 -77 l2 -23 4 23 c4 18 11 22
39 22 20 0 34 -5 35 -12 0 -10 2 -10 6 0 2 6 20 12 38 12 l33 0 0 -70 0 -70
-35 0 c-33 0 -34 1 -31 33 2 26 7 32 26 31 12 -1 22 2 22 7 0 4 -8 8 -17 8
-10 1 -25 1 -33 1 -8 0 -27 -1 -42 -4 -16 -2 -30 0 -34 5 -3 5 -13 6 -22 1
-37 -17 -57 -8 -60 26 -3 31 -2 32 32 32 30 0 36 -4 37 -22z m7795 -43 c-7
-19 -1 -19 29 1 23 15 25 15 31 0 4 -10 -2 -26 -12 -39 -14 -16 -15 -18 -2 -9
14 11 18 10 27 -5 9 -17 10 -17 17 0 6 17 7 17 20 0 12 -16 13 -17 14 -1 0 9
5 20 12 24 8 5 9 2 4 -12 -4 -10 -7 -56 -7 -102 1 -65 -2 -84 -14 -88 -8 -4
-15 -12 -15 -18 0 -7 -11 -23 -25 -36 -13 -12 -22 -27 -19 -31 3 -5 0 -9 -5
-9 -6 0 -11 -4 -11 -10 0 -5 6 -7 13 -4 10 4 12 -3 9 -26 -2 -17 0 -30 6 -30
6 0 13 -9 17 -19 4 -12 12 -17 24 -14 17 4 18 -4 13 -144 -4 -127 -7 -151 -23
-169 -12 -13 -19 -35 -19 -62 0 -38 -2 -42 -25 -42 -20 0 -25 5 -25 25 0 20
-5 25 -25 25 l-25 0 0 155 c0 141 -2 155 -17 155 -17 0 -18 17 -16 228 2 277
1 254 12 247 6 -3 16 1 23 9 17 20 22 20 14 1z m-15423 -355 c38 0 67 -4 67
-10 0 -7 -203 -10 -590 -10 -530 0 -590 2 -590 16 0 14 52 15 523 10 287 -3
552 -5 590 -6z m67 -115 c0 -12 -80 -14 -590 -12 -464 2 -590 5 -590 15 0 9
125 12 590 12 509 0 590 -2 590 -15z m-567 -94 c370 -1 567 -4 567 -11 0 -7
-203 -10 -590 -10 -492 0 -590 2 -590 14 0 8 9 12 23 11 12 -1 277 -3 590 -4z
m16161 -63 c-6 -9 -3 -9 9 0 20 17 43 6 27 -13 -8 -9 -8 -15 0 -20 6 -3 8 -11
5 -16 -4 -5 -4 -9 0 -9 3 0 10 11 15 25 5 14 14 25 19 25 6 0 7 -8 4 -17 -6
-16 -5 -17 12 -3 17 14 18 14 7 -6 -9 -16 -8 -25 3 -40 8 -11 14 -14 15 -6 0
17 20 15 20 -3 0 -8 -6 -15 -13 -15 -8 0 -27 -6 -43 -14 -19 -10 -42 -12 -69
-7 l-40 6 -3 63 c-3 57 -1 62 18 62 14 0 19 -4 14 -12z m-15594 -52 c0 -14
-59 -16 -590 -16 -527 0 -633 4 -578 22 7 3 272 6 590 7 521 2 578 1 578 -13z
m-2430 -136 c0 -81 -3 -110 -12 -111 -15 -2 -79 -1 -90 0 -5 1 -7 7 -5 14 1 6
-5 11 -13 9 -12 -3 -12 -1 -3 9 9 9 16 9 26 1 11 -9 14 -8 14 3 0 8 -3 15 -7
15 -4 0 -24 14 -45 30 -21 17 -45 30 -55 30 -19 0 -53 33 -44 43 4 4 1 13 -5
21 -9 11 -9 16 0 22 7 4 15 2 17 -4 2 -7 8 -9 14 -6 5 3 16 -2 23 -12 10 -13
14 -15 15 -5 0 11 3 11 15 1 12 -10 15 -10 15 3 0 13 6 14 32 6 18 -5 34 -9
34 -9 1 0 0 8 -3 19 -4 16 0 18 32 14 23 -2 34 0 30 7 -3 5 -1 10 4 10 7 0 11
-39 11 -110z m2430 30 c0 -6 -50 -10 -127 -11 -71 0 -336 -2 -590 -5 -407 -3
-463 -2 -463 11 0 13 72 15 590 15 387 0 590 -3 590 -10z m0 -105 c0 -13 -52
-15 -437 -15 -241 0 -507 -1 -591 -3 -115 -1 -152 1 -152 10 0 13 -5 13 873
21 270 2 307 1 307 -13z m0 -102 c0 -16 -199 -23 -702 -23 -305 0 -478 3 -478
9 0 13 75 15 678 20 318 2 502 0 502 -6z"/>
</g>
</svg>
